Coordinates
version=1
nRows=98
nColumns=3
inDegrees=yes

Units are S.I. units (second, meters, Newtons, ...)
If the header above contains a line with 'inDegrees', this indicates whether rotational values are in degrees (yes) or radians (no).

endheader
time	r_shoulder_elev	r_elbow_flex
     54.23330000	     40.27641043	     35.87600796
     54.26670000	     41.17298324	     33.87046324
     54.30000000	     41.82129974	     32.02648640
     54.33330000	     42.29460287	     30.13233221
     54.36670000	     42.57885888	     28.56943584
     54.40000000	     42.65842863	     27.74836466
     54.43330000	     42.55406397	     27.73599083
     54.46670000	     42.28934133	     28.33598235
     54.50000000	     41.95029460	     29.21449133
     54.53330000	     41.77693368	     30.01859651
     54.56670000	     42.01952234	     30.69150824
     54.60000000	     42.69521986	     31.50584505
     54.63330000	     43.61290134	     32.65613297
     54.66670000	     44.74014350	     33.84068178
     54.70000000	     46.36053912	     34.45166722
     54.73330000	     48.59586840	     34.27075790
     54.76670000	     50.84176648	     33.94912624
     54.80000000	     52.20229902	     34.40908829
     54.83330000	     52.61109972	     35.70611338
     54.86670000	     53.02534421	     36.93620792
     54.90000000	     54.31459638	     37.31728391
     54.93330000	     56.30279775	     37.07704161
     54.96670000	     58.24632419	     36.96070105
     55.00000000	     59.79444851	     37.19375179
     55.03330000	     61.05646821	     37.36202487
     55.06670000	     62.14276172	     37.00899727
     55.10000000	     63.01174481	     36.13946542
     55.13330000	     63.63348432	     35.13204431
     55.16670000	     64.06985548	     34.23736154
     55.20000000	     64.37558725	     33.39620967
     55.23330000	     64.54272516	     32.53295084
     55.26670000	     64.53634540	     31.89425419
     55.30000000	     64.35060137	     31.86134841
     55.33330000	     64.08750262	     32.29647125
     55.36670000	     63.95406106	     32.33975120
     55.40000000	     63.99525491	     31.22384902
     55.43330000	     63.73061578	     29.52529475
     55.46670000	     62.34116723	     28.99368460
     55.50000000	     59.45667497	     30.81086686
     55.53330000	     55.81706015	     34.13783349
     55.56670000	     52.97060351	     36.40123033
     55.60000000	     51.68982700	     36.03970085
     55.63330000	     51.11862517	     34.29360554
     55.66670000	     49.94971087	     33.36980269
     55.70000000	     47.70338587	     34.32683076
     55.73330000	     44.78819006	     36.96796863
     55.76670000	     41.91670101	     40.45265153
     55.80000000	     39.48334552	     43.73880263
     55.83330000	     37.27546357	     45.87884856
     55.86670000	     34.86078972	     46.20761209
     55.90000000	     32.34649015	     44.58506371
     55.93330000	     30.40706909	     42.12474525
     55.96670000	     29.42003373	     40.94823914
     56.00000000	     29.08808743	     41.81904184
     56.03330000	     28.75108151	     44.04128646
     56.06670000	     27.89564718	     47.12233677
     56.10000000	     26.57981234	     50.62945813
     56.13330000	     25.29527086	     53.75364234
     56.16670000	     24.41203047	     55.90074840
     56.20000000	     23.82673708	     57.33531060
     56.23330000	     23.19705739	     58.75383075
     56.26670000	     22.39748983	     60.35578481
     56.30000000	     21.58708343	     61.76549182
     56.33330000	     20.96449140	     62.63008183
     56.36670000	     20.68816071	     62.96053140
     56.40000000	     20.92659427	     63.02433646
     56.43330000	     21.69228245	     63.06880876
     56.46670000	     22.63783766	     63.27649057
     56.50000000	     23.30755764	     63.96337638
     56.53330000	     23.72623863	     65.07241464
     56.56670000	     24.42202862	     65.83228390
     56.60000000	     25.78613577	     65.35816325
     56.63330000	     27.69565368	     63.56025989
     56.66670000	     29.83718818	     61.09817354
     56.70000000	     32.07118123	     58.60700426
     56.73330000	     34.37310284	     56.25903463
     56.76670000	     36.75336384	     53.77979382
     56.80000000	     39.33291921	     50.87164871
     56.83330000	     42.20858000	     47.73140934
     56.86670000	     45.07327924	     45.14071664
     56.90000000	     47.28739697	     43.78875730
     56.93330000	     48.50383550	     43.59613285
     56.96670000	     49.03694068	     43.88653603
     57.00000000	     49.52076856	     43.94489983
     57.03330000	     50.22680432	     43.53265693
     57.06670000	     50.83630428	     43.08675065
     57.10000000	     50.87103727	     43.25117699
     57.13330000	     50.16998959	     44.04098483
     57.16670000	     49.01482066	     44.54811620
     57.20000000	     47.93094954	     43.78097849
     57.23330000	     47.29697399	     41.91612672
     57.26670000	     47.02705285	     40.52662203
     57.30000000	     46.79799877	     41.03687482
     57.33330000	     46.65863977	     42.83856677
     57.36670000	     47.06630952	     43.72727606
     57.40000000	     48.21305978	     42.30630150
     57.43330000	     49.61407378	     39.46464925
     57.46670000	     50.47926374	     37.62493462
